<svg role="img" viewBox="0 0 24 24" xmlns="http://www.w3.org/2000/svg" aria-labelledby="slack-title">
  <title id="slack-title">Slack</title>
  <path fill="#4A154B" d="M5.042 15.165a2.528 2.528 0 0 1-2.52 2.523A2.528 2.528 0 0 1 0 15.165a2.527 2.527 0 0 1 2.522-2.52h2.52v2.52zM6.313 15.165a2.527 2.527 0 0 1 2.521-2.52 2.527 2.527 0 0 1 2.521 2.52v6.313A2.528 2.528 0 0 1 8.834 24a2.528 2.528 0 0 1-2.521-2.522v-6.313zm2.521-10.123a2.528 2.528 0 0 1-2.521-2.52A2.528 2.528 0 0 1 8.834 0a2.528 2.528 0 0 1 2.521 2.522v2.52h-2.52zM8.834 6.313a2.527 2.527 0 0 1-2.521 2.521H0a2.528 2.528 0 0 1-2.521-2.521 2.528 2.528 0 0 1 2.521-2.521h6.313a2.528 2.528 0 0 1 2.521 2.52zm10.123 2.521a2.528 2.528 0 0 1 2.52-2.521A2.528 2.528 0 0 1 24 8.834a2.528 2.528 0 0 1-2.522 2.521h-2.52v-2.52zm-1.27 0a2.527 2.527 0 0 1-2.522 2.521 2.527 2.527 0 0 1-2.52-2.521V2.521A2.528 2.528 0 0 1 15.165 0a2.528 2.528 0 0 1 2.522 2.522v6.312zM15.165 18.958a2.528 2.528 0 0 1 2.522 2.52A2.528 2.528 0 0 1 15.165 24a2.528 2.528 0 0 1-2.52-2.522v-2.52h2.52zm0-1.27a2.527 2.527 0 0 1 2.522-2.523H24a2.528 2.528 0 0 1 2.522 2.523A2.528 2.528 0 0 1 24 20.208h-6.313a2.528 2.528 0 0 1-2.522-2.52z"/>
</svg>
